<svg width="316" height="430" viewBox="0 0 316 430" fill="none" xmlns="http://www.w3.org/2000/svg">
<path d="M18 240C9.26019 217.279 6.18181 192.772 9.03068 168.595C11.8795 144.418 20.57 121.298 34.3519 101.23C48.1337 81.1626 66.5926 64.7511 88.135 53.4123C109.677 42.0736 133.656 36.1484 158 36.1484C182.344 36.1484 206.323 42.0736 227.865 53.4123C249.407 64.7511 267.866 81.1626 281.648 101.23C295.43 121.298 304.121 144.418 306.969 168.595C309.818 192.772 306.74 217.279 298 240" stroke="url(#paint0_linear_5_148)" stroke-width="16" stroke-linecap="round"/>
<path opacity="0.3" d="M18 240C9.26019 217.279 6.18181 192.772 9.03068 168.595C11.8795 144.418 20.57 121.298 34.3519 101.23C48.1337 81.1626 66.5926 64.7511 88.135 53.4123C109.677 42.0736 133.656 36.1484 158 36.1484C182.344 36.1484 206.323 42.0736 227.865 53.4123C249.407 64.7511 267.866 81.1626 281.648 101.23C295.43 121.298 304.121 144.418 306.969 168.595C309.818 192.772 306.74 217.279 298 240" stroke="white" stroke-width="4" stroke-linecap="round"/>
<path d="M78 270L108 250L58 380L78 270Z" fill="url(#paint1_linear_5_148)"/>
<path d="M238 270L208 250L258 380L238 270Z" fill="url(#paint2_linear_5_148)"/>
<path d="M128 220H188L158 430L128 220Z" fill="url(#paint3_linear_5_148)"/>
<path opacity="0.9" d="M158 230L173 255L158 280L143 255L158 230Z" fill="white"/>
<path opacity="0.6" d="M158 270L168 290L158 310L148 290L158 270Z" fill="white"/>
<path opacity="0.4" d="M158 300L163 315L158 330L153 315L158 300Z" fill="white"/>
<path d="M158 0L28 300L158 240V0Z" fill="url(#paint4_linear_5_148)"/>
<path d="M158 0V240L288 300L158 0Z" fill="url(#paint5_linear_5_148)"/>
<defs>
<linearGradient id="paint0_linear_5_148" x1="8" y1="20421.3" x2="18960.7" y2="-7470.57" gradientUnits="userSpaceOnUse">
<stop stop-color="#7033FF" stop-opacity="0.2"/>
<stop offset="0.5" stop-color="#9B72FF"/>
<stop offset="1" stop-color="#7033FF" stop-opacity="0.2"/>
</linearGradient>
<linearGradient id="paint1_linear_5_148" x1="58" y1="250" x2="58" y2="13250" gradientUnits="userSpaceOnUse">
<stop stop-color="#FF416C"/>
<stop offset="1" stop-color="#FF4B2B"/>
</linearGradient>
<linearGradient id="paint2_linear_5_148" x1="208" y1="250" x2="208" y2="13250" gradientUnits="userSpaceOnUse">
<stop stop-color="#FF416C"/>
<stop offset="1" stop-color="#FF4B2B"/>
</linearGradient>
<linearGradient id="paint3_linear_5_148" x1="128" y1="220" x2="128" y2="21220" gradientUnits="userSpaceOnUse">
<stop stop-color="#FF512F"/>
<stop offset="0.5" stop-color="#F09819"/>
<stop offset="1" stop-color="#FFD200"/>
</linearGradient>
<linearGradient id="paint4_linear_5_148" x1="28" y1="0" x2="21917.6" y2="9485.5" gradientUnits="userSpaceOnUse">
<stop stop-color="#9B72FF"/>
<stop offset="1" stop-color="#7033FF"/>
</linearGradient>
<linearGradient id="paint5_linear_5_148" x1="158" y1="0" x2="22047.6" y2="9485.5" gradientUnits="userSpaceOnUse">
<stop stop-color="#7033FF"/>
<stop offset="1" stop-color="#3A0CA3"/>
</linearGradient>
</defs>
</svg>
