<svg width="210" height="204" viewBox="0 0 210 204" fill="none" xmlns="http://www.w3.org/2000/svg">
<path d="M204.627 101.83L175.167 51.15H120.367L92.9565 4H34.0865L4.62653 54.68L32.0265 101.83L4.62653 148.98L34.0865 199.66H92.9565L120.367 152.51H175.167L204.627 101.83ZM38.1565 11.07H88.8865L114.237 54.68L88.8865 98.29H38.1565L12.8065 54.68L38.1565 11.07ZM88.8865 192.59H38.1565L12.8065 148.98L38.1565 105.37H88.8865L114.237 149L88.8865 192.59ZM120.367 145.44L95.0165 101.83L120.367 58.22H171.097L196.447 101.83L171.097 145.44H120.367Z" fill="#7033FF" stroke="#7033FF" stroke-width="8"/>
</svg>
